<svg xmlns="http://www.w3.org/2000/svg" xmlns:xlink="http://www.w3.org/1999/xlink" width="500" zoomAndPan="magnify" viewBox="0 0 375 374.999991" height="500" preserveAspectRatio="xMidYMid meet" version="1.0"><defs><filter x="0%" y="0%" width="100%" height="100%" id="f81ee3211d"><feColorMatrix values="0 0 0 0 1 0 0 0 0 1 0 0 0 0 1 0 0 0 1 0" color-interpolation-filters="sRGB"/></filter><g/><mask id="4fcb5431c8"><g filter="url(#f81ee3211d)"><rect x="-37.5" width="450" fill="#000000" y="-37.499999" height="449.999989" fill-opacity="0.92"/></g></mask><clipPath id="2f06708d17"><rect x="0" width="84" y="0" height="84"/></clipPath></defs><g fill="#000000" fill-opacity="1"><g transform="translate(101.956337, 200.866359)"><g><path d="M 3.480469 0 L 5.785156 0 L 5.785156 -16.902344 L 24.480469 -16.902344 L 24.480469 0 L 26.78125 0 L 26.78125 -33.40625 L 24.480469 -33.40625 L 24.480469 -18.753906 L 5.785156 -18.753906 L 5.785156 -33.40625 L 3.480469 -33.40625 Z M 3.480469 0 "/></g></g></g><g fill="#000000" fill-opacity="1"><g transform="translate(132.219939, 200.866359)"><g><path d="M 23.078125 -12.96875 C 23.078125 -17.6875 19.089844 -22.515625 13.082031 -22.515625 C 7.019531 -22.515625 1.851562 -18.023438 1.851562 -10.894531 C 1.851562 -4.097656 6.851562 0.449219 13.308594 0.449219 C 16.5625 0.449219 20.042969 -0.617188 22.570312 -2.976562 L 21.617188 -4.324219 C 19.316406 -2.414062 16.339844 -1.292969 13.308594 -1.292969 C 8.535156 -1.292969 4.996094 -4.265625 4.097656 -8.648438 L 23.078125 -12.015625 Z M 3.875 -10.894531 C 3.875 -16.84375 8.027344 -20.773438 13.082031 -20.773438 C 17.6875 -20.773438 20.664062 -17.292969 21 -13.644531 L 3.875 -10.613281 Z M 3.875 -10.894531 "/></g></g></g><g fill="#000000" fill-opacity="1"><g transform="translate(157.149511, 200.866359)"><g><path d="M 6.511719 0.449219 L 7.1875 -1.066406 C 5.277344 -1.347656 4.660156 -2.414062 4.660156 -4.546875 L 4.660156 -34.363281 L 2.582031 -33.96875 L 2.582031 -4.378906 C 2.582031 -1.121094 3.988281 0.113281 6.511719 0.449219 Z M 6.511719 0.449219 "/></g></g></g><g fill="#000000" fill-opacity="1"><g transform="translate(165.29093, 200.866359)"><g><path d="M 12.183594 -22.570312 C 9.488281 -22.570312 6.960938 -21.617188 4.941406 -19.988281 L 4.492188 -21.953125 L 3.089844 -21.953125 L 3.089844 10.78125 L 5.164062 10.78125 L 5.164062 -2.078125 C 7.128906 -0.617188 9.433594 0.394531 12.183594 0.394531 C 18.191406 0.394531 23.46875 -4.097656 23.46875 -11.230469 C 23.46875 -18.246094 18.246094 -22.570312 12.183594 -22.570312 Z M 11.902344 -1.402344 C 9.320312 -1.402344 7.019531 -2.414062 5.164062 -4.097656 L 5.164062 -18.304688 C 7.1875 -19.875 9.375 -20.773438 11.902344 -20.773438 C 17.070312 -20.773438 21.390625 -17.011719 21.390625 -11.230469 C 21.390625 -5.277344 17.070312 -1.402344 11.902344 -1.402344 Z M 11.902344 -1.402344 "/></g></g></g><g mask="url(#4fcb5431c8)"><g transform="matrix(1, 0, 0, 1, 190, 146)"><g clip-path="url(#2f06708d17)"><path fill="#000000" d="M 76.410156 7.488281 C 75.984375 7.0625 75.539062 6.660156 75.074219 6.28125 C 74.609375 5.898438 74.125 5.542969 73.625 5.207031 C 73.125 4.875 72.609375 4.566406 72.078125 4.28125 C 71.550781 4 71.007812 3.742188 70.449219 3.515625 C 69.894531 3.285156 69.328125 3.082031 68.753906 2.90625 C 68.179688 2.734375 67.59375 2.585938 67.007812 2.46875 C 66.417969 2.351562 65.820312 2.265625 65.222656 2.207031 C 64.625 2.148438 64.027344 2.117188 63.425781 2.117188 C 62.824219 2.117188 62.222656 2.148438 61.625 2.207031 C 61.027344 2.265625 60.433594 2.351562 59.84375 2.46875 C 59.253906 2.585938 58.671875 2.734375 58.09375 2.90625 C 57.519531 3.082031 56.953125 3.285156 56.398438 3.515625 C 55.84375 3.742188 55.300781 4 54.769531 4.28125 C 54.238281 4.566406 53.722656 4.875 53.222656 5.207031 C 52.722656 5.542969 52.242188 5.898438 51.773438 6.28125 C 51.308594 6.660156 50.863281 7.0625 50.4375 7.488281 L 42.089844 15.835938 L 33.742188 7.488281 C 33.316406 7.070312 32.871094 6.671875 32.40625 6.296875 C 31.9375 5.921875 31.457031 5.566406 30.957031 5.238281 C 30.457031 4.910156 29.941406 4.609375 29.414062 4.328125 C 28.882812 4.050781 28.339844 3.800781 27.789062 3.574219 C 27.234375 3.347656 26.667969 3.152344 26.097656 2.980469 C 25.523438 2.808594 24.941406 2.667969 24.355469 2.554688 C 23.769531 2.441406 23.175781 2.355469 22.582031 2.300781 C 21.984375 2.246094 21.390625 2.21875 20.789062 2.222656 C 20.191406 2.222656 19.597656 2.253906 19 2.316406 C 18.40625 2.378906 17.816406 2.46875 17.230469 2.585938 C 16.644531 2.703125 16.0625 2.851562 15.492188 3.027344 C 14.917969 3.203125 14.359375 3.40625 13.804688 3.632812 C 13.253906 3.863281 12.714844 4.121094 12.1875 4.402344 C 11.660156 4.6875 11.148438 4.996094 10.652344 5.328125 C 10.152344 5.660156 9.675781 6.015625 9.210938 6.394531 C 8.75 6.777344 8.308594 7.175781 7.882812 7.601562 C 7.460938 8.023438 7.058594 8.464844 6.679688 8.925781 C 6.300781 9.390625 5.945312 9.871094 5.613281 10.367188 C 5.277344 10.863281 4.972656 11.375 4.6875 11.902344 C 4.40625 12.429688 4.148438 12.96875 3.917969 13.519531 C 3.6875 14.074219 3.488281 14.636719 3.3125 15.207031 C 3.136719 15.777344 2.988281 16.359375 2.871094 16.945312 C 2.75 17.53125 2.664062 18.121094 2.601562 18.714844 C 2.539062 19.3125 2.507812 19.90625 2.507812 20.507812 C 2.503906 21.105469 2.53125 21.699219 2.585938 22.296875 C 2.640625 22.890625 2.726562 23.484375 2.839844 24.070312 C 2.953125 24.65625 3.09375 25.238281 3.265625 25.8125 C 3.4375 26.386719 3.632812 26.949219 3.859375 27.503906 C 4.082031 28.058594 4.335938 28.597656 4.613281 29.128906 C 4.890625 29.65625 5.195312 30.171875 5.523438 30.671875 C 5.851562 31.171875 6.203125 31.65625 6.582031 32.121094 C 6.957031 32.585938 7.355469 33.03125 7.773438 33.457031 L 16.121094 41.804688 L 7.773438 50.15625 C 7.351562 50.582031 6.953125 51.027344 6.574219 51.492188 C 6.199219 51.957031 5.84375 52.441406 5.515625 52.941406 C 5.1875 53.4375 4.882812 53.953125 4.601562 54.484375 C 4.320312 55.011719 4.070312 55.554688 3.84375 56.109375 C 3.617188 56.664062 3.417969 57.230469 3.246094 57.800781 C 3.074219 58.375 2.933594 58.957031 2.816406 59.546875 C 2.703125 60.132812 2.617188 60.726562 2.5625 61.320312 C 2.503906 61.917969 2.476562 62.515625 2.480469 63.113281 C 2.480469 63.714844 2.511719 64.3125 2.574219 64.90625 C 2.632812 65.503906 2.722656 66.09375 2.839844 66.679688 C 2.957031 67.269531 3.105469 67.847656 3.28125 68.421875 C 3.457031 68.992188 3.65625 69.558594 3.886719 70.109375 C 4.117188 70.664062 4.375 71.203125 4.65625 71.730469 C 4.941406 72.257812 5.25 72.773438 5.582031 73.269531 C 5.914062 73.765625 6.273438 74.246094 6.652344 74.710938 C 7.03125 75.171875 7.433594 75.617188 7.855469 76.039062 C 8.28125 76.464844 8.722656 76.863281 9.1875 77.246094 C 9.648438 77.625 10.128906 77.980469 10.628906 78.316406 C 11.125 78.648438 11.636719 78.957031 12.167969 79.238281 C 12.695312 79.523438 13.234375 79.777344 13.789062 80.007812 C 14.339844 80.238281 14.902344 80.441406 15.476562 80.617188 C 16.046875 80.792969 16.628906 80.9375 17.214844 81.058594 C 17.804688 81.175781 18.394531 81.265625 18.992188 81.324219 C 19.585938 81.386719 20.183594 81.417969 20.78125 81.417969 C 21.382812 81.421875 21.980469 81.394531 22.574219 81.335938 C 23.171875 81.28125 23.761719 81.195312 24.351562 81.082031 C 24.9375 80.964844 25.519531 80.824219 26.09375 80.652344 C 26.667969 80.480469 27.230469 80.28125 27.785156 80.054688 C 28.339844 79.828125 28.882812 79.574219 29.414062 79.296875 C 29.941406 79.015625 30.457031 78.710938 30.957031 78.382812 C 31.457031 78.050781 31.941406 77.699219 32.40625 77.320312 C 32.871094 76.945312 33.316406 76.546875 33.742188 76.125 L 42.089844 67.777344 L 50.4375 76.125 C 50.863281 76.550781 51.308594 76.957031 51.773438 77.34375 C 52.238281 77.726562 52.71875 78.085938 53.21875 78.421875 C 53.722656 78.757812 54.234375 79.070312 54.765625 79.355469 C 55.296875 79.640625 55.839844 79.898438 56.398438 80.132812 C 56.953125 80.363281 57.519531 80.570312 58.097656 80.746094 C 58.671875 80.921875 59.257812 81.070312 59.847656 81.1875 C 60.4375 81.304688 61.035156 81.394531 61.632812 81.457031 C 62.234375 81.515625 62.835938 81.546875 63.4375 81.546875 C 64.039062 81.550781 64.640625 81.519531 65.242188 81.460938 C 65.839844 81.402344 66.4375 81.316406 67.027344 81.199219 C 67.621094 81.082031 68.203125 80.9375 68.78125 80.761719 C 69.359375 80.589844 69.925781 80.386719 70.480469 80.15625 C 71.039062 79.925781 71.582031 79.667969 72.113281 79.386719 C 72.648438 79.101562 73.164062 78.792969 73.664062 78.457031 C 74.164062 78.121094 74.648438 77.765625 75.117188 77.382812 C 75.582031 77 76.027344 76.59375 76.453125 76.167969 C 76.878906 75.742188 77.285156 75.296875 77.667969 74.832031 C 78.050781 74.363281 78.40625 73.882812 78.742188 73.378906 C 79.078125 72.878906 79.386719 72.363281 79.667969 71.832031 C 79.953125 71.296875 80.210938 70.753906 80.441406 70.195312 C 80.671875 69.640625 80.875 69.074219 81.046875 68.496094 C 81.222656 67.917969 81.367188 67.335938 81.484375 66.742188 C 81.601562 66.152344 81.6875 65.554688 81.746094 64.957031 C 81.804688 64.355469 81.832031 63.753906 81.832031 63.152344 C 81.832031 62.550781 81.800781 61.949219 81.742188 61.347656 C 81.679688 60.75 81.589844 60.152344 81.472656 59.5625 C 81.351562 58.972656 81.207031 58.386719 81.03125 57.8125 C 80.851562 57.234375 80.648438 56.667969 80.417969 56.113281 C 80.183594 55.558594 79.925781 55.011719 79.640625 54.480469 C 79.355469 53.953125 79.042969 53.4375 78.707031 52.9375 C 78.371094 52.4375 78.011719 51.953125 77.628906 51.488281 C 77.242188 51.023438 76.835938 50.578125 76.410156 50.15625 L 68.0625 41.804688 L 76.410156 33.457031 C 76.835938 33.03125 77.238281 32.585938 77.617188 32.121094 C 78 31.65625 78.355469 31.175781 78.691406 30.675781 C 79.023438 30.171875 79.332031 29.660156 79.613281 29.128906 C 79.898438 28.597656 80.152344 28.054688 80.382812 27.5 C 80.613281 26.941406 80.816406 26.378906 80.988281 25.800781 C 81.164062 25.226562 81.308594 24.644531 81.425781 24.054688 C 81.542969 23.464844 81.632812 22.871094 81.691406 22.273438 C 81.75 21.675781 81.78125 21.074219 81.78125 20.472656 C 81.78125 19.871094 81.75 19.273438 81.691406 18.671875 C 81.632812 18.074219 81.542969 17.480469 81.425781 16.890625 C 81.308594 16.300781 81.164062 15.71875 80.988281 15.144531 C 80.816406 14.570312 80.613281 14.003906 80.382812 13.449219 C 80.152344 12.890625 79.898438 12.347656 79.613281 11.820312 C 79.332031 11.289062 79.023438 10.773438 78.691406 10.273438 C 78.355469 9.773438 78 9.289062 77.617188 8.824219 C 77.238281 8.359375 76.835938 7.914062 76.410156 7.488281 Z M 31.886719 74.269531 C 31.15625 75.003906 30.363281 75.65625 29.503906 76.230469 C 28.644531 76.804688 27.734375 77.289062 26.78125 77.6875 C 25.824219 78.082031 24.839844 78.382812 23.828125 78.582031 C 22.8125 78.785156 21.789062 78.886719 20.753906 78.886719 C 19.722656 78.886719 18.699219 78.785156 17.683594 78.585938 C 16.667969 78.382812 15.683594 78.085938 14.730469 77.6875 C 13.773438 77.292969 12.867188 76.808594 12.007812 76.234375 C 11.148438 75.660156 10.351562 75.007812 9.621094 74.277344 C 8.890625 73.546875 8.238281 72.75 7.664062 71.890625 C 7.089844 71.03125 6.605469 70.121094 6.207031 69.167969 C 5.8125 68.210938 5.515625 67.226562 5.3125 66.214844 C 5.109375 65.199219 5.011719 64.175781 5.011719 63.140625 C 5.011719 62.109375 5.113281 61.082031 5.3125 60.070312 C 5.515625 59.054688 5.816406 58.070312 6.210938 57.117188 C 6.609375 56.160156 7.09375 55.253906 7.667969 54.394531 C 8.242188 53.535156 8.894531 52.738281 9.628906 52.007812 L 17.976562 43.660156 L 40.234375 65.921875 Z M 74.554688 74.269531 C 73.824219 75 73.027344 75.652344 72.167969 76.226562 C 71.308594 76.800781 70.402344 77.28125 69.445312 77.679688 C 68.492188 78.074219 67.507812 78.371094 66.496094 78.570312 C 65.480469 78.773438 64.457031 78.875 63.425781 78.875 C 62.390625 78.875 61.367188 78.773438 60.355469 78.570312 C 59.339844 78.371094 58.355469 78.074219 57.402344 77.679688 C 56.449219 77.28125 55.539062 76.800781 54.679688 76.226562 C 53.820312 75.652344 53.027344 75 52.292969 74.269531 L 9.628906 31.601562 C 8.894531 30.871094 8.242188 30.078125 7.667969 29.21875 C 7.09375 28.359375 6.609375 27.453125 6.214844 26.496094 C 5.820312 25.542969 5.519531 24.558594 5.320312 23.542969 C 5.117188 22.53125 5.015625 21.507812 5.015625 20.472656 C 5.015625 19.4375 5.117188 18.414062 5.320312 17.402344 C 5.519531 16.386719 5.820312 15.402344 6.214844 14.449219 C 6.609375 13.496094 7.09375 12.585938 7.667969 11.726562 C 8.242188 10.867188 8.894531 10.074219 9.628906 9.34375 C 10.359375 8.613281 11.152344 7.960938 12.011719 7.386719 C 12.871094 6.8125 13.777344 6.324219 14.734375 5.929688 C 15.6875 5.535156 16.671875 5.234375 17.6875 5.035156 C 18.699219 4.832031 19.722656 4.730469 20.757812 4.730469 C 21.789062 4.730469 22.816406 4.832031 23.828125 5.035156 C 24.84375 5.234375 25.828125 5.535156 26.78125 5.929688 C 27.734375 6.324219 28.644531 6.8125 29.503906 7.386719 C 30.363281 7.960938 31.15625 8.613281 31.886719 9.34375 L 74.554688 52.007812 C 75.285156 52.742188 75.9375 53.535156 76.507812 54.394531 C 77.082031 55.253906 77.566406 56.164062 77.960938 57.117188 C 78.355469 58.070312 78.65625 59.054688 78.855469 60.070312 C 79.058594 61.082031 79.15625 62.105469 79.15625 63.140625 C 79.15625 64.171875 79.058594 65.195312 78.855469 66.210938 C 78.65625 67.222656 78.355469 68.207031 77.960938 69.160156 C 77.566406 70.117188 77.082031 71.023438 76.507812 71.882812 C 75.9375 72.742188 75.285156 73.539062 74.554688 74.269531 Z M 66.207031 39.953125 L 43.945312 17.691406 L 52.292969 9.34375 C 53.023438 8.613281 53.820312 7.960938 54.679688 7.386719 C 55.539062 6.8125 56.445312 6.324219 57.402344 5.929688 C 58.355469 5.535156 59.339844 5.234375 60.351562 5.035156 C 61.367188 4.832031 62.390625 4.730469 63.425781 4.730469 C 64.457031 4.730469 65.480469 4.832031 66.496094 5.035156 C 67.507812 5.234375 68.492188 5.535156 69.449219 5.929688 C 70.402344 6.324219 71.308594 6.8125 72.167969 7.386719 C 73.027344 7.960938 73.824219 8.613281 74.554688 9.34375 C 75.285156 10.074219 75.9375 10.867188 76.511719 11.726562 C 77.085938 12.585938 77.570312 13.496094 77.96875 14.449219 C 78.363281 15.402344 78.660156 16.386719 78.863281 17.402344 C 79.0625 18.414062 79.164062 19.4375 79.164062 20.472656 C 79.164062 21.507812 79.0625 22.53125 78.863281 23.542969 C 78.660156 24.558594 78.363281 25.542969 77.96875 26.496094 C 77.570312 27.453125 77.085938 28.359375 76.511719 29.21875 C 75.9375 30.078125 75.285156 30.871094 74.554688 31.601562 Z M 66.207031 39.953125 " fill-opacity="1" fill-rule="nonzero"/><path fill="#000000" d="M 70.378906 57.109375 C 70.503906 56.988281 70.597656 56.84375 70.664062 56.683594 C 70.730469 56.523438 70.765625 56.355469 70.765625 56.183594 C 70.765625 56.007812 70.730469 55.839844 70.664062 55.679688 C 70.597656 55.519531 70.503906 55.378906 70.378906 55.253906 C 70.257812 55.132812 70.117188 55.039062 69.953125 54.972656 C 69.792969 54.90625 69.628906 54.871094 69.453125 54.871094 C 69.277344 54.871094 69.113281 54.90625 68.949219 54.972656 C 68.789062 55.039062 68.648438 55.132812 68.527344 55.253906 C 68.402344 55.378906 68.308594 55.519531 68.242188 55.679688 C 68.175781 55.839844 68.140625 56.007812 68.140625 56.183594 C 68.140625 56.355469 68.175781 56.523438 68.242188 56.683594 C 68.308594 56.84375 68.402344 56.988281 68.527344 57.109375 C 68.648438 57.234375 68.789062 57.328125 68.949219 57.394531 C 69.113281 57.460938 69.277344 57.496094 69.453125 57.496094 C 69.628906 57.496094 69.792969 57.460938 69.953125 57.394531 C 70.117188 57.328125 70.257812 57.234375 70.378906 57.109375 Z M 70.378906 57.109375 " fill-opacity="1" fill-rule="nonzero"/><path fill="#000000" d="M 62.03125 61.75 C 61.910156 61.871094 61.816406 62.011719 61.75 62.171875 C 61.683594 62.335938 61.648438 62.5 61.648438 62.675781 C 61.648438 62.851562 61.683594 63.015625 61.75 63.175781 C 61.816406 63.339844 61.910156 63.480469 62.03125 63.601562 C 62.15625 63.726562 62.296875 63.820312 62.457031 63.886719 C 62.621094 63.953125 62.785156 63.988281 62.960938 63.988281 C 63.132812 63.988281 63.300781 63.953125 63.460938 63.886719 C 63.625 63.820312 63.765625 63.726562 63.886719 63.601562 C 64.011719 63.480469 64.105469 63.339844 64.171875 63.175781 C 64.238281 63.015625 64.273438 62.851562 64.273438 62.675781 C 64.273438 62.5 64.238281 62.335938 64.171875 62.171875 C 64.105469 62.011719 64.011719 61.871094 63.886719 61.75 C 63.765625 61.625 63.625 61.53125 63.460938 61.464844 C 63.300781 61.398438 63.132812 61.363281 62.960938 61.363281 C 62.785156 61.363281 62.621094 61.398438 62.457031 61.464844 C 62.296875 61.53125 62.15625 61.625 62.03125 61.75 Z M 62.03125 61.75 " fill-opacity="1" fill-rule="nonzero"/><path fill="#000000" d="M 55.539062 68.242188 C 55.417969 68.363281 55.320312 68.503906 55.253906 68.667969 C 55.1875 68.828125 55.15625 68.996094 55.15625 69.167969 C 55.15625 69.34375 55.1875 69.507812 55.253906 69.671875 C 55.320312 69.832031 55.417969 69.972656 55.539062 70.097656 C 55.664062 70.21875 55.804688 70.3125 55.964844 70.378906 C 56.125 70.445312 56.292969 70.480469 56.46875 70.480469 C 56.640625 70.480469 56.808594 70.445312 56.96875 70.378906 C 57.128906 70.3125 57.273438 70.21875 57.394531 70.097656 C 57.519531 69.972656 57.613281 69.832031 57.679688 69.671875 C 57.746094 69.507812 57.777344 69.34375 57.777344 69.167969 C 57.777344 68.996094 57.746094 68.828125 57.679688 68.667969 C 57.613281 68.503906 57.519531 68.363281 57.394531 68.242188 C 57.273438 68.117188 57.128906 68.023438 56.96875 67.957031 C 56.808594 67.890625 56.640625 67.855469 56.46875 67.855469 C 56.292969 67.855469 56.125 67.890625 55.964844 67.957031 C 55.804688 68.023438 55.664062 68.117188 55.539062 68.242188 Z M 55.539062 68.242188 " fill-opacity="1" fill-rule="nonzero"/><path fill="#000000" d="M 62.03125 48.761719 C 62.15625 48.640625 62.25 48.496094 62.316406 48.335938 C 62.382812 48.175781 62.417969 48.007812 62.417969 47.835938 C 62.417969 47.660156 62.382812 47.492188 62.316406 47.332031 C 62.25 47.171875 62.15625 47.03125 62.03125 46.90625 C 61.910156 46.785156 61.769531 46.691406 61.605469 46.625 C 61.445312 46.558594 61.277344 46.523438 61.105469 46.523438 C 60.929688 46.523438 60.765625 46.558594 60.601562 46.625 C 60.441406 46.691406 60.300781 46.785156 60.179688 46.90625 C 60.054688 47.03125 59.960938 47.171875 59.894531 47.332031 C 59.828125 47.492188 59.792969 47.660156 59.792969 47.835938 C 59.792969 48.007812 59.828125 48.175781 59.894531 48.335938 C 59.960938 48.496094 60.054688 48.640625 60.179688 48.761719 C 60.300781 48.886719 60.441406 48.980469 60.601562 49.046875 C 60.765625 49.113281 60.929688 49.148438 61.105469 49.148438 C 61.277344 49.148438 61.445312 49.113281 61.605469 49.046875 C 61.769531 48.980469 61.910156 48.886719 62.03125 48.761719 Z M 62.03125 48.761719 " fill-opacity="1" fill-rule="nonzero"/><path fill="#000000" d="M 55.539062 55.253906 C 55.664062 55.132812 55.757812 54.992188 55.824219 54.828125 C 55.890625 54.667969 55.925781 54.5 55.925781 54.328125 C 55.925781 54.152344 55.890625 53.988281 55.824219 53.824219 C 55.757812 53.664062 55.664062 53.523438 55.539062 53.398438 C 55.417969 53.277344 55.273438 53.183594 55.113281 53.117188 C 54.953125 53.050781 54.785156 53.015625 54.613281 53.015625 C 54.4375 53.015625 54.269531 53.050781 54.109375 53.117188 C 53.949219 53.183594 53.808594 53.277344 53.683594 53.398438 C 53.5625 53.523438 53.46875 53.664062 53.402344 53.824219 C 53.335938 53.988281 53.300781 54.152344 53.300781 54.328125 C 53.300781 54.5 53.335938 54.667969 53.402344 54.828125 C 53.46875 54.992188 53.5625 55.132812 53.683594 55.253906 C 53.808594 55.378906 53.949219 55.472656 54.109375 55.539062 C 54.269531 55.605469 54.4375 55.640625 54.613281 55.640625 C 54.785156 55.640625 54.953125 55.605469 55.113281 55.539062 C 55.273438 55.472656 55.417969 55.378906 55.539062 55.253906 Z M 55.539062 55.253906 " fill-opacity="1" fill-rule="nonzero"/><path fill="#000000" d="M 47.191406 59.894531 C 47.070312 60.015625 46.972656 60.15625 46.90625 60.320312 C 46.839844 60.480469 46.808594 60.648438 46.808594 60.820312 C 46.808594 60.996094 46.839844 61.160156 46.90625 61.324219 C 46.976562 61.484375 47.070312 61.625 47.191406 61.75 C 47.316406 61.871094 47.457031 61.964844 47.617188 62.03125 C 47.777344 62.097656 47.945312 62.132812 48.121094 62.132812 C 48.292969 62.132812 48.460938 62.097656 48.621094 62.03125 C 48.78125 61.964844 48.925781 61.871094 49.046875 61.75 C 49.171875 61.625 49.265625 61.484375 49.332031 61.324219 C 49.398438 61.160156 49.429688 60.996094 49.429688 60.820312 C 49.429688 60.648438 49.398438 60.480469 49.332031 60.320312 C 49.265625 60.15625 49.171875 60.015625 49.046875 59.894531 C 48.925781 59.769531 48.78125 59.675781 48.621094 59.609375 C 48.460938 59.542969 48.292969 59.507812 48.121094 59.507812 C 47.945312 59.507812 47.777344 59.542969 47.617188 59.609375 C 47.457031 59.675781 47.316406 59.769531 47.191406 59.894531 Z M 47.191406 59.894531 " fill-opacity="1" fill-rule="nonzero"/><path fill="#000000" d="M 61.105469 54.328125 C 60.980469 54.449219 60.886719 54.59375 60.820312 54.753906 C 60.753906 54.914062 60.722656 55.082031 60.722656 55.253906 C 60.722656 55.429688 60.753906 55.597656 60.820312 55.757812 C 60.886719 55.917969 60.980469 56.058594 61.105469 56.183594 C 61.226562 56.304688 61.371094 56.402344 61.53125 56.46875 C 61.691406 56.535156 61.859375 56.566406 62.03125 56.566406 C 62.207031 56.566406 62.375 56.535156 62.535156 56.46875 C 62.695312 56.402344 62.835938 56.304688 62.960938 56.183594 C 63.082031 56.058594 63.179688 55.917969 63.246094 55.757812 C 63.3125 55.597656 63.34375 55.429688 63.34375 55.253906 C 63.34375 55.082031 63.3125 54.914062 63.246094 54.753906 C 63.179688 54.59375 63.082031 54.449219 62.960938 54.328125 C 62.835938 54.203125 62.695312 54.109375 62.535156 54.042969 C 62.375 53.976562 62.207031 53.945312 62.03125 53.945312 C 61.859375 53.945312 61.691406 53.976562 61.53125 54.042969 C 61.371094 54.109375 61.226562 54.203125 61.105469 54.328125 Z M 61.105469 54.328125 " fill-opacity="1" fill-rule="nonzero"/><path fill="#000000" d="M 56.851562 61.75 C 56.851562 61.921875 56.820312 62.089844 56.753906 62.25 C 56.683594 62.410156 56.589844 62.550781 56.46875 62.675781 C 56.34375 62.796875 56.203125 62.894531 56.042969 62.960938 C 55.882812 63.027344 55.714844 63.058594 55.539062 63.058594 C 55.367188 63.058594 55.199219 63.027344 55.039062 62.960938 C 54.878906 62.894531 54.734375 62.796875 54.613281 62.675781 C 54.488281 62.550781 54.394531 62.410156 54.328125 62.25 C 54.261719 62.089844 54.226562 61.921875 54.226562 61.75 C 54.226562 61.574219 54.261719 61.40625 54.328125 61.246094 C 54.394531 61.085938 54.488281 60.945312 54.613281 60.820312 C 54.734375 60.699219 54.878906 60.601562 55.039062 60.535156 C 55.199219 60.46875 55.367188 60.4375 55.539062 60.4375 C 55.714844 60.4375 55.882812 60.46875 56.042969 60.535156 C 56.203125 60.601562 56.34375 60.699219 56.46875 60.820312 C 56.589844 60.945312 56.683594 61.085938 56.753906 61.246094 C 56.820312 61.40625 56.851562 61.574219 56.851562 61.75 Z M 56.851562 61.75 " fill-opacity="1" fill-rule="nonzero"/><path fill="#000000" d="M 69.632812 62.855469 C 69.507812 62.976562 69.414062 63.117188 69.347656 63.28125 C 69.28125 63.441406 69.246094 63.609375 69.246094 63.78125 C 69.246094 63.957031 69.28125 64.121094 69.347656 64.285156 C 69.414062 64.445312 69.507812 64.585938 69.632812 64.710938 C 69.753906 64.832031 69.894531 64.925781 70.058594 64.992188 C 70.21875 65.058594 70.386719 65.09375 70.558594 65.09375 C 70.734375 65.09375 70.898438 65.058594 71.0625 64.992188 C 71.222656 64.925781 71.363281 64.832031 71.488281 64.710938 C 71.609375 64.585938 71.703125 64.445312 71.769531 64.285156 C 71.835938 64.121094 71.871094 63.957031 71.871094 63.78125 C 71.871094 63.609375 71.835938 63.441406 71.769531 63.28125 C 71.703125 63.117188 71.609375 62.976562 71.488281 62.855469 C 71.363281 62.730469 71.222656 62.636719 71.0625 62.570312 C 70.898438 62.503906 70.734375 62.46875 70.558594 62.46875 C 70.386719 62.46875 70.21875 62.503906 70.058594 62.570312 C 69.894531 62.636719 69.753906 62.730469 69.632812 62.855469 Z M 69.632812 62.855469 " fill-opacity="1" fill-rule="nonzero"/><path fill="#000000" d="M 65.378906 70.273438 C 65.378906 70.449219 65.34375 70.617188 65.277344 70.777344 C 65.210938 70.9375 65.117188 71.078125 64.992188 71.203125 C 64.871094 71.324219 64.730469 71.417969 64.566406 71.484375 C 64.40625 71.550781 64.242188 71.585938 64.066406 71.585938 C 63.890625 71.585938 63.726562 71.550781 63.5625 71.484375 C 63.402344 71.417969 63.261719 71.324219 63.140625 71.203125 C 63.015625 71.078125 62.921875 70.9375 62.855469 70.777344 C 62.789062 70.617188 62.753906 70.449219 62.753906 70.273438 C 62.753906 70.101562 62.789062 69.933594 62.855469 69.773438 C 62.921875 69.613281 63.015625 69.46875 63.140625 69.347656 C 63.261719 69.222656 63.402344 69.128906 63.5625 69.0625 C 63.726562 68.996094 63.890625 68.960938 64.066406 68.960938 C 64.242188 68.960938 64.40625 68.996094 64.566406 69.0625 C 64.730469 69.128906 64.871094 69.222656 64.992188 69.347656 C 65.117188 69.46875 65.210938 69.613281 65.277344 69.773438 C 65.34375 69.933594 65.378906 70.101562 65.378906 70.273438 Z M 65.378906 70.273438 " fill-opacity="1" fill-rule="nonzero"/><path fill="#000000" d="M 27.714844 14.445312 C 27.835938 14.320312 27.933594 14.179688 28 14.019531 C 28.066406 13.859375 28.097656 13.691406 28.097656 13.515625 C 28.097656 13.34375 28.066406 13.175781 28 13.015625 C 27.933594 12.855469 27.835938 12.710938 27.714844 12.589844 C 27.589844 12.464844 27.449219 12.371094 27.289062 12.304688 C 27.128906 12.238281 26.960938 12.203125 26.785156 12.203125 C 26.613281 12.203125 26.445312 12.238281 26.285156 12.304688 C 26.125 12.371094 25.980469 12.464844 25.859375 12.589844 C 25.734375 12.710938 25.640625 12.855469 25.574219 13.015625 C 25.507812 13.175781 25.476562 13.34375 25.476562 13.515625 C 25.476562 13.691406 25.507812 13.859375 25.574219 14.019531 C 25.640625 14.179688 25.734375 14.320312 25.859375 14.445312 C 25.980469 14.566406 26.125 14.660156 26.285156 14.730469 C 26.445312 14.796875 26.613281 14.828125 26.785156 14.828125 C 26.960938 14.828125 27.128906 14.796875 27.289062 14.730469 C 27.449219 14.660156 27.589844 14.566406 27.714844 14.445312 Z M 27.714844 14.445312 " fill-opacity="1" fill-rule="nonzero"/><path fill="#000000" d="M 21.605469 20.007812 C 21.605469 20.183594 21.574219 20.351562 21.503906 20.511719 C 21.4375 20.671875 21.34375 20.8125 21.222656 20.9375 C 21.097656 21.058594 20.957031 21.15625 20.796875 21.222656 C 20.636719 21.289062 20.46875 21.320312 20.292969 21.320312 C 20.121094 21.320312 19.953125 21.289062 19.792969 21.222656 C 19.632812 21.15625 19.488281 21.058594 19.367188 20.9375 C 19.242188 20.8125 19.148438 20.671875 19.082031 20.511719 C 19.015625 20.351562 18.980469 20.183594 18.980469 20.007812 C 18.980469 19.835938 19.015625 19.667969 19.082031 19.507812 C 19.148438 19.347656 19.242188 19.203125 19.367188 19.082031 C 19.488281 18.957031 19.632812 18.863281 19.792969 18.796875 C 19.953125 18.730469 20.121094 18.699219 20.292969 18.699219 C 20.46875 18.699219 20.636719 18.730469 20.796875 18.796875 C 20.957031 18.863281 21.097656 18.957031 21.222656 19.082031 C 21.34375 19.203125 21.4375 19.347656 21.503906 19.507812 C 21.574219 19.667969 21.605469 19.835938 21.605469 20.007812 Z M 21.605469 20.007812 " fill-opacity="1" fill-rule="nonzero"/><path fill="#000000" d="M 12.875 25.574219 C 12.75 25.699219 12.65625 25.839844 12.589844 26 C 12.523438 26.160156 12.488281 26.328125 12.488281 26.503906 C 12.488281 26.675781 12.523438 26.84375 12.589844 27.003906 C 12.65625 27.164062 12.75 27.304688 12.875 27.429688 C 12.996094 27.550781 13.136719 27.648438 13.300781 27.714844 C 13.460938 27.78125 13.628906 27.8125 13.800781 27.8125 C 13.976562 27.8125 14.144531 27.78125 14.304688 27.714844 C 14.464844 27.648438 14.605469 27.550781 14.730469 27.429688 C 14.851562 27.304688 14.945312 27.164062 15.011719 27.003906 C 15.078125 26.84375 15.113281 26.675781 15.113281 26.503906 C 15.113281 26.328125 15.078125 26.160156 15.011719 26 C 14.945312 25.839844 14.851562 25.699219 14.730469 25.574219 C 14.605469 25.453125 14.464844 25.355469 14.304688 25.289062 C 14.144531 25.222656 13.976562 25.191406 13.800781 25.191406 C 13.628906 25.191406 13.460938 25.222656 13.300781 25.289062 C 13.140625 25.355469 12.996094 25.453125 12.875 25.574219 Z M 12.875 25.574219 " fill-opacity="1" fill-rule="nonzero"/><path fill="#000000" d="M 36.0625 22.792969 C 36.183594 22.667969 36.28125 22.527344 36.347656 22.367188 C 36.414062 22.207031 36.445312 22.039062 36.445312 21.863281 C 36.445312 21.691406 36.414062 21.523438 36.347656 21.363281 C 36.28125 21.203125 36.183594 21.058594 36.0625 20.9375 C 35.9375 20.8125 35.796875 20.71875 35.636719 20.652344 C 35.476562 20.585938 35.308594 20.550781 35.132812 20.550781 C 34.960938 20.550781 34.792969 20.585938 34.632812 20.652344 C 34.472656 20.71875 34.328125 20.8125 34.207031 20.9375 C 34.082031 21.058594 33.988281 21.203125 33.921875 21.363281 C 33.855469 21.523438 33.824219 21.691406 33.824219 21.863281 C 33.824219 22.039062 33.855469 22.207031 33.921875 22.367188 C 33.988281 22.527344 34.082031 22.667969 34.207031 22.792969 C 34.328125 22.914062 34.472656 23.007812 34.632812 23.078125 C 34.792969 23.144531 34.960938 23.175781 35.132812 23.175781 C 35.308594 23.175781 35.476562 23.144531 35.636719 23.078125 C 35.796875 23.007812 35.9375 22.914062 36.0625 22.792969 Z M 36.0625 22.792969 " fill-opacity="1" fill-rule="nonzero"/><path fill="#000000" d="M 29.953125 28.355469 C 29.953125 28.53125 29.921875 28.699219 29.855469 28.859375 C 29.785156 29.019531 29.691406 29.160156 29.570312 29.285156 C 29.445312 29.40625 29.304688 29.503906 29.144531 29.570312 C 28.984375 29.636719 28.816406 29.667969 28.640625 29.667969 C 28.46875 29.667969 28.300781 29.636719 28.140625 29.570312 C 27.980469 29.503906 27.835938 29.40625 27.714844 29.285156 C 27.589844 29.160156 27.496094 29.019531 27.429688 28.859375 C 27.363281 28.699219 27.328125 28.53125 27.328125 28.355469 C 27.328125 28.183594 27.363281 28.015625 27.429688 27.855469 C 27.496094 27.695312 27.589844 27.550781 27.714844 27.429688 C 27.835938 27.304688 27.980469 27.210938 28.140625 27.144531 C 28.300781 27.078125 28.46875 27.046875 28.640625 27.046875 C 28.816406 27.046875 28.984375 27.078125 29.144531 27.144531 C 29.304688 27.210938 29.445312 27.304688 29.570312 27.429688 C 29.691406 27.550781 29.785156 27.695312 29.855469 27.855469 C 29.921875 28.015625 29.953125 28.183594 29.953125 28.355469 Z M 29.953125 28.355469 " fill-opacity="1" fill-rule="nonzero"/><path fill="#000000" d="M 21.222656 33.921875 C 21.097656 34.046875 21.003906 34.1875 20.9375 34.347656 C 20.871094 34.507812 20.835938 34.675781 20.835938 34.851562 C 20.835938 35.023438 20.871094 35.191406 20.9375 35.351562 C 21.003906 35.511719 21.097656 35.65625 21.222656 35.777344 C 21.34375 35.898438 21.488281 35.996094 21.648438 36.0625 C 21.808594 36.128906 21.976562 36.160156 22.148438 36.160156 C 22.324219 36.160156 22.492188 36.128906 22.652344 36.0625 C 22.8125 35.996094 22.953125 35.898438 23.078125 35.777344 C 23.199219 35.65625 23.292969 35.511719 23.359375 35.351562 C 23.425781 35.191406 23.460938 35.023438 23.460938 34.851562 C 23.460938 34.675781 23.425781 34.507812 23.359375 34.347656 C 23.292969 34.1875 23.199219 34.046875 23.078125 33.921875 C 22.953125 33.800781 22.8125 33.703125 22.652344 33.636719 C 22.492188 33.570312 22.324219 33.539062 22.148438 33.539062 C 21.976562 33.539062 21.808594 33.570312 21.648438 33.636719 C 21.488281 33.703125 21.34375 33.800781 21.222656 33.921875 Z M 21.222656 33.921875 " fill-opacity="1" fill-rule="nonzero"/><path fill="#000000" d="M 28.640625 21.863281 C 28.765625 21.742188 28.859375 21.597656 28.925781 21.4375 C 28.992188 21.277344 29.027344 21.109375 29.027344 20.9375 C 29.027344 20.761719 28.992188 20.59375 28.925781 20.433594 C 28.859375 20.273438 28.765625 20.132812 28.640625 20.007812 C 28.519531 19.886719 28.375 19.792969 28.214844 19.726562 C 28.054688 19.660156 27.886719 19.625 27.714844 19.625 C 27.539062 19.625 27.371094 19.660156 27.210938 19.726562 C 27.050781 19.792969 26.910156 19.886719 26.785156 20.007812 C 26.664062 20.132812 26.570312 20.273438 26.503906 20.433594 C 26.4375 20.59375 26.402344 20.761719 26.402344 20.9375 C 26.402344 21.109375 26.4375 21.277344 26.503906 21.4375 C 26.570312 21.597656 26.664062 21.742188 26.785156 21.863281 C 26.910156 21.988281 27.050781 22.082031 27.210938 22.148438 C 27.371094 22.214844 27.539062 22.25 27.714844 22.25 C 27.886719 22.25 28.054688 22.214844 28.214844 22.148438 C 28.375 22.082031 28.519531 21.988281 28.640625 21.863281 Z M 28.640625 21.863281 " fill-opacity="1" fill-rule="nonzero"/><path fill="#000000" d="M 20.0625 13.875 C 20.1875 13.753906 20.28125 13.609375 20.347656 13.449219 C 20.414062 13.289062 20.449219 13.121094 20.449219 12.949219 C 20.449219 12.773438 20.414062 12.605469 20.347656 12.445312 C 20.28125 12.285156 20.1875 12.144531 20.0625 12.019531 C 19.941406 11.898438 19.796875 11.804688 19.636719 11.738281 C 19.476562 11.667969 19.308594 11.636719 19.136719 11.636719 C 18.960938 11.636719 18.792969 11.667969 18.632812 11.738281 C 18.472656 11.804688 18.332031 11.898438 18.207031 12.019531 C 18.085938 12.144531 17.992188 12.285156 17.925781 12.445312 C 17.855469 12.605469 17.824219 12.773438 17.824219 12.949219 C 17.824219 13.121094 17.855469 13.289062 17.925781 13.449219 C 17.992188 13.609375 18.085938 13.753906 18.207031 13.875 C 18.332031 14 18.472656 14.09375 18.632812 14.160156 C 18.792969 14.226562 18.960938 14.261719 19.136719 14.261719 C 19.308594 14.261719 19.476562 14.226562 19.636719 14.160156 C 19.796875 14.09375 19.941406 14 20.0625 13.875 Z M 20.0625 13.875 " fill-opacity="1" fill-rule="nonzero"/><path fill="#000000" d="M 22.148438 28.355469 C 22.273438 28.234375 22.367188 28.09375 22.433594 27.929688 C 22.5 27.769531 22.535156 27.605469 22.535156 27.429688 C 22.535156 27.253906 22.5 27.089844 22.433594 26.925781 C 22.367188 26.765625 22.273438 26.625 22.148438 26.503906 C 22.027344 26.378906 21.882812 26.285156 21.722656 26.21875 C 21.5625 26.152344 21.394531 26.117188 21.222656 26.117188 C 21.046875 26.117188 20.878906 26.152344 20.71875 26.21875 C 20.558594 26.285156 20.417969 26.378906 20.292969 26.503906 C 20.171875 26.625 20.078125 26.765625 20.007812 26.925781 C 19.941406 27.089844 19.910156 27.253906 19.910156 27.429688 C 19.910156 27.605469 19.941406 27.769531 20.007812 27.929688 C 20.078125 28.09375 20.171875 28.234375 20.292969 28.355469 C 20.417969 28.480469 20.558594 28.574219 20.71875 28.640625 C 20.878906 28.707031 21.046875 28.742188 21.222656 28.742188 C 21.394531 28.742188 21.5625 28.707031 21.722656 28.640625 C 21.882812 28.574219 22.027344 28.480469 22.148438 28.355469 Z M 22.148438 28.355469 " fill-opacity="1" fill-rule="nonzero"/><path fill="#000000" d="M 13.503906 20.433594 C 13.628906 20.3125 13.722656 20.167969 13.789062 20.007812 C 13.855469 19.847656 13.890625 19.679688 13.890625 19.507812 C 13.890625 19.332031 13.855469 19.164062 13.789062 19.003906 C 13.722656 18.84375 13.628906 18.703125 13.503906 18.578125 C 13.382812 18.457031 13.238281 18.363281 13.078125 18.296875 C 12.917969 18.230469 12.75 18.195312 12.578125 18.195312 C 12.402344 18.195312 12.234375 18.230469 12.074219 18.296875 C 11.914062 18.363281 11.773438 18.457031 11.648438 18.578125 C 11.527344 18.703125 11.433594 18.84375 11.367188 19.003906 C 11.296875 19.164062 11.265625 19.332031 11.265625 19.507812 C 11.265625 19.679688 11.296875 19.847656 11.363281 20.007812 C 11.433594 20.167969 11.527344 20.3125 11.648438 20.433594 C 11.773438 20.558594 11.914062 20.652344 12.074219 20.71875 C 12.234375 20.785156 12.402344 20.820312 12.578125 20.820312 C 12.75 20.820312 12.917969 20.785156 13.078125 20.71875 C 13.238281 20.652344 13.382812 20.558594 13.503906 20.433594 Z M 13.503906 20.433594 " fill-opacity="1" fill-rule="nonzero"/><path fill="#000000" d="M 55.609375 36.773438 L 46.253906 27.421875 C 45.953125 27.117188 45.621094 26.847656 45.261719 26.605469 C 44.90625 26.367188 44.527344 26.167969 44.128906 26.003906 C 43.734375 25.839844 43.324219 25.714844 42.902344 25.628906 C 42.480469 25.546875 42.054688 25.503906 41.625 25.503906 C 41.195312 25.503906 40.769531 25.542969 40.347656 25.628906 C 39.925781 25.710938 39.519531 25.832031 39.121094 25.996094 C 38.722656 26.160156 38.34375 26.359375 37.988281 26.597656 C 37.628906 26.835938 37.296875 27.105469 36.992188 27.40625 L 27.84375 36.511719 C 25.285156 38.949219 25.28125 43.351562 27.832031 45.796875 L 37.382812 55.347656 C 39.855469 57.929688 44.320312 57.886719 46.742188 55.261719 L 55.695312 45.960938 C 55.988281 45.652344 56.25 45.320312 56.480469 44.964844 C 56.707031 44.605469 56.902344 44.230469 57.054688 43.832031 C 57.210938 43.4375 57.328125 43.03125 57.40625 42.613281 C 57.484375 42.195312 57.519531 41.773438 57.515625 41.351562 C 57.511719 40.925781 57.46875 40.503906 57.382812 40.089844 C 57.296875 39.671875 57.171875 39.269531 57.011719 38.875 C 56.847656 38.484375 56.648438 38.113281 56.410156 37.757812 C 56.175781 37.402344 55.910156 37.078125 55.609375 36.773438 Z M 53.808594 44.140625 L 44.855469 53.441406 C 43.398438 55.003906 40.703125 55.082031 39.238281 53.492188 L 29.6875 43.941406 C 28.15625 42.476562 28.160156 39.832031 29.691406 38.371094 L 38.84375 29.269531 C 39.210938 28.902344 39.636719 28.621094 40.117188 28.421875 C 40.601562 28.222656 41.101562 28.125 41.621094 28.125 C 42.144531 28.125 42.644531 28.226562 43.125 28.425781 C 43.605469 28.625 44.03125 28.90625 44.398438 29.273438 L 53.753906 38.628906 C 54.117188 38.996094 54.398438 39.414062 54.59375 39.890625 C 54.792969 40.367188 54.894531 40.859375 54.898438 41.375 C 54.902344 41.890625 54.8125 42.386719 54.625 42.863281 C 54.433594 43.34375 54.164062 43.769531 53.808594 44.140625 Z M 53.808594 44.140625 " fill-opacity="1" fill-rule="nonzero"/></g></g></g></svg>